<svg width="134" height="84" viewBox="0 0 134 84" fill="none" xmlns="http://www.w3.org/2000/svg">
<g id="Encriptado">
<g id="Lupa">
<path id="Vector" opacity="0.24" d="M121.118 62.4365C121.597 63.0818 131.646 75.4246 132.097 76.0679C132.112 76.6239 132.026 77.4222 131.605 78.2516C130.507 80.391 127.68 81.5716 126.794 80.8132C126.193 80.3254 126.773 79.2025 126.89 77.6019C127.119 74.8441 125.85 72.8924 123.474 69.0287C121.764 66.2957 119.861 63.1602 117.218 58.7776L121.118 62.4365Z" fill="#D9D9D9"/>
<g id="Group">
<g id="Group_2">
<path id="Vector_2" d="M126.245 81.1338C129.409 81.7812 132.286 79.5499 132.494 76.3189C132.532 75.7946 131.706 75.7342 131.668 76.2586C131.492 79.0479 129.005 80.8639 126.305 80.3058C125.788 80.1848 125.727 81.0127 126.245 81.1338Z" fill="black"/>
</g>
</g>
<g id="Group_3">
<g id="Group_4">
<path id="Vector_3" d="M126.108 80.3469C126.403 77.4552 129.139 75.6297 131.904 76.4422C132.419 76.5908 132.698 75.8066 132.182 75.6579C128.849 74.6653 125.646 76.8172 125.282 80.2865C125.244 80.8108 126.07 80.8712 126.108 80.3469Z" fill="black"/>
</g>
</g>
<g id="Group_5">
<g id="Group_6">
<g id="Vector_4">
<path d="M125.967 80.5068C124.554 78.7495 123.141 76.9922 121.756 75.2357C121.418 74.8215 120.843 75.3717 121.134 75.768C121.141 75.7787 121.15 75.7893 121.159 75.7997C122.572 77.557 123.985 79.3144 125.371 81.0709C125.718 81.4962 126.315 80.9045 125.967 80.5068Z" fill="black"/>
<path d="M121.134 75.768C120.843 75.3717 121.418 74.8215 121.756 75.2357L105.598 55.2862L105.063 55.7484L121.134 75.768Z" fill="black"/>
</g>
</g>
</g>
<g id="Group_7">
<g id="Group_8">
<g id="Vector_5">
<path d="M132.248 75.651C130.989 74.0731 129.649 72.5541 128.205 71.1506C127.833 70.7841 127.289 71.3716 127.638 71.7435C127.642 71.748 127.647 71.7525 127.651 71.757C129.04 73.1353 130.348 74.5726 131.549 76.0977C131.872 76.5265 132.571 76.0798 132.248 75.651Z" fill="black"/>
<path d="M127.638 71.7435C127.289 71.3716 127.833 70.7841 128.205 71.1506L108.881 51.5155L108.346 51.9777L127.638 71.7435Z" fill="black"/>
</g>
</g>
</g>
<path id="Vector_6" d="M111.488 42.1002C112.16 32.8942 105.258 24.887 96.071 24.2156C86.8839 23.5442 78.8909 30.4629 78.2181 39.6689C77.5454 48.8749 84.4476 56.8821 93.6347 57.5535C102.822 58.2249 110.815 51.3062 111.488 42.1002Z" stroke="black" stroke-width="3" stroke-miterlimit="10"/>
<g id="Group_9">
<g id="Group_10">
<path id="Vector_7" d="M85.6175 45.3444C90.5546 39.9837 95.6819 34.8012 100.999 29.7969C101.391 29.4364 100.806 28.8483 100.415 29.2088C95.0901 34.1864 89.9628 39.3689 85.0327 44.7564C84.6823 45.1632 85.2671 45.7513 85.6175 45.3444Z" fill="black"/>
</g>
</g>
<g id="Group_11">
<g id="Group_12">
<path id="Vector_8" d="M88.135 52.1623C92.0852 47.2909 96.1242 42.5388 100.291 37.8385C100.642 37.4317 100.057 36.8437 99.7066 37.2505C95.5662 41.9437 91.5075 46.7295 87.5502 51.5742C87.1998 51.981 87.7846 52.5691 88.135 52.1623Z" fill="black"/>
</g>
</g>
</g>
<g id="diamod">
<path id="Vector_9" d="M20.3542 27.9074C17.9468 32.7951 15.5118 37.6828 13.1044 42.5706C23.066 55.9083 33.0276 69.2184 42.9893 82.5562C45.5627 78.6625 48.1084 74.6861 50.6818 70.682C56.7418 61.1827 62.5251 51.7938 68.0593 42.4877C66.1777 37.7105 64.2684 32.9056 62.3868 28.1283C61.1692 27.4931 59.9517 26.8856 58.7342 26.2505C46.9462 26.2781 35.1583 26.3057 23.3981 26.3333C22.3466 26.8856 21.3504 27.4103 20.3542 27.9074Z" fill="white"/>
<g id="Group_13">
<g id="Group_14">
<path id="Vector_10" d="M13.4364 42.7915C15.5395 38.1799 17.6978 33.5959 19.9115 29.0396C20.1329 28.5701 19.4411 28.1283 19.1921 28.6254C16.9784 33.1817 14.82 37.7657 12.717 42.3773C12.4956 42.8467 13.2151 43.2886 13.4364 42.7915Z" fill="black"/>
</g>
</g>
<g id="Group_15">
<g id="Group_16">
<path id="Vector_11" d="M12.883 43.2885C22.6233 56.6263 32.5572 69.7983 42.6849 82.86C43.0169 83.2742 43.598 82.6943 43.266 82.28C33.1937 69.2737 23.315 56.1568 13.6024 42.8743C13.2981 42.4601 12.5786 42.8743 12.883 43.2885Z" fill="black"/>
</g>
</g>
<g id="Group_17">
<g id="Group_18">
<path id="Vector_12" d="M20.1052 28.5701C21.2674 27.9626 22.4019 27.3275 23.5641 26.7199C24.0345 26.4714 23.6195 25.7534 23.149 26.002C21.9869 26.6095 20.8523 27.2446 19.6901 27.8521C19.1921 28.1283 19.6348 28.8186 20.1052 28.5701Z" fill="black"/>
</g>
</g>
<g id="Group_19">
<g id="Group_20">
<path id="Vector_13" d="M24.2559 26.7752C32.8893 26.7752 41.5504 26.7752 50.1838 26.7752C50.7095 26.7752 50.7095 25.9468 50.1838 25.9468C41.5504 25.9468 32.8893 25.9468 24.2559 25.9468C23.7301 25.9468 23.7301 26.7752 24.2559 26.7752Z" fill="black"/>
</g>
</g>
<g id="Group_21">
<g id="Group_22">
<path id="Vector_14" d="M68.4468 42.4049C66.7035 37.7933 64.9049 33.2369 63.0509 28.6529C62.8572 28.1559 62.0547 28.3768 62.2484 28.8738C64.1024 33.4302 65.901 38.0142 67.6443 42.6258C67.838 43.1228 68.6405 42.9019 68.4468 42.4049Z" fill="black"/>
</g>
</g>
<g id="Group_23">
<g id="Group_24">
<path id="Vector_15" d="M67.5336 42.8191C59.426 56.074 51.1523 69.2461 42.7126 82.3077C42.4082 82.7495 43.1276 83.1637 43.432 82.7219C51.8717 69.6603 60.1454 56.5159 68.2531 43.2333C68.5298 42.7915 67.8103 42.3497 67.5336 42.8191Z" fill="black"/>
</g>
</g>
<g id="Group_25">
<g id="Group_26">
<path id="Vector_16" d="M62.5528 27.797C61.5843 27.1895 60.6158 26.5543 59.6473 25.9468C59.2046 25.6707 58.7895 26.361 59.2323 26.6648C60.2007 27.2723 61.1692 27.9074 62.1377 28.5149C62.6082 28.8187 63.0232 28.1007 62.5528 27.797Z" fill="black"/>
</g>
</g>
<g id="Group_27">
<g id="Group_28">
<path id="Vector_17" d="M58.7065 25.864C51.4843 25.864 44.2622 25.864 37.0677 25.864C36.5419 25.864 36.5419 26.6924 37.0677 26.6924C44.2898 26.6924 51.512 26.6924 58.7065 26.6924C59.2323 26.6924 59.2323 25.864 58.7065 25.864Z" fill="black"/>
</g>
</g>
<g id="Group_29">
<g id="Group_30">
<path id="Vector_18" d="M13.7686 43.2057C18.7217 41.0794 23.6749 38.9531 28.628 36.8268C29.1261 36.6059 28.6834 35.9155 28.213 36.1088C23.2598 38.2351 18.3067 40.3614 13.3535 42.4878C12.8831 42.7087 13.2982 43.4266 13.7686 43.2057Z" fill="black"/>
</g>
</g>
<g id="Group_31">
<g id="Group_32">
<path id="Vector_19" d="M20.2435 28.3216C23.2873 28.791 26.2758 29.4538 29.2366 30.2822C29.7624 30.4203 29.9838 29.6195 29.458 29.4814C26.4972 28.6253 23.5087 27.9902 20.4649 27.5208C19.9391 27.4379 19.6901 28.2387 20.2435 28.3216Z" fill="black"/>
</g>
</g>
<g id="Group_33">
<g id="Group_34">
<path id="Vector_20" d="M29.0153 30.1442C29.6794 32.2153 30.2605 34.2863 30.7586 36.4127C30.8693 36.9373 31.6717 36.7164 31.561 36.1917C31.063 34.0654 30.4818 31.9943 29.8177 29.9233C29.6517 29.4262 28.8493 29.6195 29.0153 30.1442Z" fill="black"/>
</g>
</g>
<g id="Group_35">
<g id="Group_36">
<path id="Vector_21" d="M30.2882 30.227C37.7041 30.227 45.0923 30.227 52.5082 30.227C53.034 30.227 53.034 29.3986 52.5082 29.3986C45.0923 29.3986 37.7041 29.3986 30.2882 29.3986C29.7625 29.3986 29.7625 30.227 30.2882 30.227Z" fill="black"/>
</g>
</g>
<g id="Group_37">
<g id="Group_38">
<path id="Vector_22" d="M52.1484 30.3927C51.8717 31.9115 51.595 33.4579 51.3183 34.9767C51.2353 35.5014 52.0377 35.7223 52.1207 35.1976C52.3974 33.6788 52.6742 32.1324 52.9509 30.6136C53.0339 30.089 52.2314 29.868 52.1484 30.3927Z" fill="black"/>
</g>
</g>
<g id="Group_39">
<g id="Group_40">
<path id="Vector_23" d="M31.2013 36.4678C37.6764 36.4678 44.1515 36.4678 50.6542 36.4678C51.1799 36.4678 51.1799 35.6394 50.6542 35.6394C44.1791 35.6394 37.7041 35.6394 31.2013 35.6394C30.6756 35.6394 30.6756 36.4678 31.2013 36.4678Z" fill="black"/>
</g>
</g>
<g id="Group_41">
<g id="Group_42">
<path id="Vector_24" d="M53.3107 30.227C56.3268 29.5919 59.3153 28.9568 62.3315 28.3216C62.8572 28.2112 62.6359 27.4103 62.1101 27.5208C59.094 28.1559 56.1055 28.7911 53.0893 29.4262C52.5636 29.5367 52.7849 30.3375 53.3107 30.227Z" fill="black"/>
</g>
</g>
<g id="Group_43">
<g id="Group_44">
<path id="Vector_25" d="M51.9271 36.2193C54.7219 36.6611 57.323 38.2351 59.8687 39.4226C62.5805 40.6928 65.2646 41.9631 67.9764 43.2333C68.4468 43.4543 68.8895 42.7363 68.3915 42.5154C65.5137 41.1623 62.6635 39.8368 59.7857 38.4837C57.3507 37.3239 54.8326 35.8603 52.1485 35.4185C51.6227 35.3356 51.4013 36.1364 51.9271 36.2193Z" fill="black"/>
</g>
</g>
<g id="Group_45">
<g id="Group_46">
<path id="Vector_26" d="M31.4504 37.7381C35.0477 52.5394 38.6173 67.3683 42.2145 82.1696C42.3529 82.6943 43.1277 82.4734 43.017 81.9487C39.4197 67.1474 35.8501 52.3185 32.2529 37.5172C32.1145 36.9925 31.3121 37.2134 31.4504 37.7381Z" fill="black"/>
</g>
</g>
<g id="Group_47">
<g id="Group_48">
<path id="Vector_27" d="M50.7649 38.7322C47.389 52.9812 44.5942 67.3959 42.4358 81.8935C42.3528 82.4181 43.1553 82.6391 43.2383 82.1144C45.3966 67.6168 48.1914 53.2297 51.5673 38.9531C51.7057 38.4284 50.9032 38.2075 50.7649 38.7322Z" fill="black"/>
</g>
</g>
<g id="Group_49">
<g id="Group_50">
<path id="Vector_28" d="M51.0416 11.0903C52.2868 7.91464 52.9786 4.5733 53.0893 1.14912C53.117 0.624447 52.2868 0.624447 52.2591 1.14912C52.1485 4.49046 51.4567 7.74895 50.2392 10.8694C50.0455 11.3664 50.8479 11.5597 51.0416 11.0903Z" fill="black"/>
</g>
</g>
<g id="Group_51">
<g id="Group_52">
<path id="Vector_29" d="M56.7142 11.6425C59.3706 8.63254 62.3591 5.98156 65.7073 3.74479C66.1501 3.44104 65.735 2.72306 65.2923 3.02682C61.8887 5.2912 58.8172 7.99741 56.1331 11.0626C55.7734 11.4492 56.3545 12.0291 56.7142 11.6425Z" fill="black"/>
</g>
</g>
<g id="Group_53">
<g id="Group_54">
<path id="Vector_30" d="M62.1654 16.7512C65.5967 15.7295 69.1386 15.3429 72.7082 15.619C73.2339 15.6466 73.2339 14.8182 72.7082 14.7906C69.0556 14.5144 65.4583 14.901 61.9441 15.9504C61.446 16.1161 61.6397 16.9169 62.1654 16.7512Z" fill="black"/>
</g>
</g>
<g id="Group_55">
<g id="Group_56">
<path id="Vector_31" d="M7.86223 9.3935C8.19428 14.8611 5.12277 20.0803 0.197294 22.4551C-0.0794184 22.5932 -0.0517472 23.0074 0.197294 23.1731C4.7077 25.8793 6.78306 30.8499 7.97292 35.7376C8.11127 36.2623 8.88606 36.0414 8.77537 35.5167C7.53017 30.408 5.31647 25.2442 0.612362 22.4551C0.612362 22.7036 0.612362 22.9245 0.612362 23.1731C5.78688 20.6602 9.05209 15.1097 8.69236 9.3935C8.66469 8.86883 7.83456 8.86883 7.86223 9.3935Z" fill="#E8E8E8"/>
</g>
</g>
<g id="Group_57">
<g id="Group_58">
<path id="Vector_32" d="M8.16658 9.3935C7.80685 15.1373 11.072 20.6878 16.2466 23.1731C16.2466 22.9245 16.2466 22.7036 16.2466 22.4551C11.5148 25.2718 9.30109 30.4356 8.05588 35.5719C7.91753 36.0966 8.72 36.3175 8.85836 35.7928C10.0482 30.8775 12.1235 25.8793 16.6616 23.1731C16.9107 23.035 16.9383 22.5932 16.6616 22.4551C11.7361 20.0803 8.63698 14.8611 8.96903 9.3935C9.02437 8.86883 8.19425 8.86883 8.16658 9.3935Z" fill="#E8E8E8"/>
</g>
</g>
</g>
</g>
</svg>
