<svg id="visual" viewBox="0 0 180 400" width="180" height="400" xmlns="http://www.w3.org/2000/svg" xmlns:xlink="http://www.w3.org/1999/xlink" version="1.1"><rect x="0" y="0" width="180" height="400" fill="#001220"></rect><path d="M71 400L76.5 392.7C82 385.3 93 370.7 87.7 355.8C82.3 341 60.7 326 59.8 311.2C59 296.3 79 281.7 82 266.8C85 252 71 237 73 222.2C75 207.3 93 192.7 99.3 177.8C105.7 163 100.3 148 90.3 133.2C80.3 118.3 65.7 103.7 68 88.8C70.3 74 89.7 59 94.3 44.2C99 29.3 89 14.7 84 7.3L79 0L180 0L180 7.3C180 14.7 180 29.3 180 44.2C180 59 180 74 180 88.8C180 103.7 180 118.3 180 133.2C180 148 180 163 180 177.8C180 192.7 180 207.3 180 222.2C180 237 180 252 180 266.8C180 281.7 180 296.3 180 311.2C180 326 180 341 180 355.8C180 370.7 180 385.3 180 392.7L180 400Z" fill="#fa7268"></path><path d="M71 400L73.8 392.7C76.7 385.3 82.3 370.7 88.5 355.8C94.7 341 101.3 326 104.3 311.2C107.3 296.3 106.7 281.7 102.8 266.8C99 252 92 237 90.3 222.2C88.7 207.3 92.3 192.7 94.7 177.8C97 163 98 148 99.2 133.2C100.3 118.3 101.7 103.7 103.2 88.8C104.7 74 106.3 59 103.7 44.2C101 29.3 94 14.7 90.5 7.3L87 0L180 0L180 7.3C180 14.7 180 29.3 180 44.2C180 59 180 74 180 88.8C180 103.7 180 118.3 180 133.2C180 148 180 163 180 177.8C180 192.7 180 207.3 180 222.2C180 237 180 252 180 266.8C180 281.7 180 296.3 180 311.2C180 326 180 341 180 355.8C180 370.7 180 385.3 180 392.7L180 400Z" fill="#eb5967"></path><path d="M98 400L103.8 392.7C109.7 385.3 121.3 370.7 124.8 355.8C128.3 341 123.7 326 125.7 311.2C127.7 296.3 136.3 281.7 134 266.8C131.7 252 118.3 237 118.2 222.2C118 207.3 131 192.7 134.2 177.8C137.3 163 130.7 148 131.7 133.2C132.7 118.3 141.3 103.7 137.7 88.8C134 74 118 59 112.2 44.2C106.3 29.3 110.7 14.7 112.8 7.3L115 0L180 0L180 7.3C180 14.7 180 29.3 180 44.2C180 59 180 74 180 88.8C180 103.7 180 118.3 180 133.2C180 148 180 163 180 177.8C180 192.7 180 207.3 180 222.2C180 237 180 252 180 266.8C180 281.7 180 296.3 180 311.2C180 326 180 341 180 355.8C180 370.7 180 385.3 180 392.7L180 400Z" fill="#da3f67"></path><path d="M154 400L150.3 392.7C146.7 385.3 139.3 370.7 136.3 355.8C133.3 341 134.7 326 136 311.2C137.3 296.3 138.7 281.7 143.7 266.8C148.7 252 157.3 237 159.5 222.2C161.7 207.3 157.3 192.7 156.5 177.8C155.7 163 158.3 148 154.5 133.2C150.7 118.3 140.3 103.7 139.5 88.8C138.7 74 147.3 59 151.2 44.2C155 29.3 154 14.7 153.5 7.3L153 0L180 0L180 7.3C180 14.7 180 29.3 180 44.2C180 59 180 74 180 88.8C180 103.7 180 118.3 180 133.2C180 148 180 163 180 177.8C180 192.7 180 207.3 180 222.2C180 237 180 252 180 266.8C180 281.7 180 296.3 180 311.2C180 326 180 341 180 355.8C180 370.7 180 385.3 180 392.7L180 400Z" fill="#c62368"></path></svg>