<svg id="visual" viewBox="0 0 960 540" width="960" height="540" xmlns="http://www.w3.org/2000/svg" xmlns:xlink="http://www.w3.org/1999/xlink" version="1.1"><rect x="0" y="0" width="960" height="540" fill="#001220"></rect><path d="M560 540L571.7 525C583.3 510 606.7 480 622.5 450C638.3 420 646.7 390 656.2 360C665.7 330 676.3 300 673.7 270C671 240 655 210 646 180C637 150 635 120 642.5 90C650 60 667 30 675.5 15L684 0L960 0L960 15C960 30 960 60 960 90C960 120 960 150 960 180C960 210 960 240 960 270C960 300 960 330 960 360C960 390 960 420 960 450C960 480 960 510 960 525L960 540Z" fill="#fa7268"></path><path d="M675 540L674.8 525C674.7 510 674.3 480 680.3 450C686.3 420 698.7 390 697.3 360C696 330 681 300 681 270C681 240 696 210 692 180C688 150 665 120 669.2 90C673.3 60 704.7 30 720.3 15L736 0L960 0L960 15C960 30 960 60 960 90C960 120 960 150 960 180C960 210 960 240 960 270C960 300 960 330 960 360C960 390 960 420 960 450C960 480 960 510 960 525L960 540Z" fill="#eb5967"></path><path d="M782 540L781.5 525C781 510 780 480 773.3 450C766.7 420 754.3 390 744.7 360C735 330 728 300 730.8 270C733.7 240 746.3 210 754.5 180C762.7 150 766.3 120 762 90C757.7 60 745.3 30 739.2 15L733 0L960 0L960 15C960 30 960 60 960 90C960 120 960 150 960 180C960 210 960 240 960 270C960 300 960 330 960 360C960 390 960 420 960 450C960 480 960 510 960 525L960 540Z" fill="#da3f67"></path><path d="M800 540L804.7 525C809.3 510 818.7 480 822 450C825.3 420 822.7 390 826.8 360C831 330 842 300 846.8 270C851.7 240 850.3 210 841.5 180C832.7 150 816.3 120 810.5 90C804.7 60 809.3 30 811.7 15L814 0L960 0L960 15C960 30 960 60 960 90C960 120 960 150 960 180C960 210 960 240 960 270C960 300 960 330 960 360C960 390 960 420 960 450C960 480 960 510 960 525L960 540Z" fill="#c62368"></path></svg>