<svg id="visual" viewBox="0 0 540 960" width="540" height="960" xmlns="http://www.w3.org/2000/svg" xmlns:xlink="http://www.w3.org/1999/xlink" version="1.1"><rect x="0" y="0" width="540" height="960" fill="#001220"></rect><path d="M0 695L12.8 696.8C25.7 698.7 51.3 702.3 77 697.7C102.7 693 128.3 680 154 666.2C179.7 652.3 205.3 637.7 231.2 623.3C257 609 283 595 308.8 610.7C334.7 626.3 360.3 671.7 386 676.3C411.7 681 437.3 645 463 626.3C488.7 607.7 514.3 606.3 527.2 605.7L540 605L540 961L527.2 961C514.3 961 488.7 961 463 961C437.3 961 411.7 961 386 961C360.3 961 334.7 961 308.8 961C283 961 257 961 231.2 961C205.3 961 179.7 961 154 961C128.3 961 102.7 961 77 961C51.3 961 25.7 961 12.8 961L0 961Z" fill="#fa7268"></path><path d="M0 634L12.8 640.2C25.7 646.3 51.3 658.7 77 666C102.7 673.3 128.3 675.7 154 688.3C179.7 701 205.3 724 231.2 726C257 728 283 709 308.8 702.8C334.7 696.7 360.3 703.3 386 701.2C411.7 699 437.3 688 463 693.2C488.7 698.3 514.3 719.7 527.2 730.3L540 741L540 961L527.2 961C514.3 961 488.7 961 463 961C437.3 961 411.7 961 386 961C360.3 961 334.7 961 308.8 961C283 961 257 961 231.2 961C205.3 961 179.7 961 154 961C128.3 961 102.7 961 77 961C51.3 961 25.7 961 12.8 961L0 961Z" fill="#ef5f67"></path><path d="M0 722L12.8 722.3C25.7 722.7 51.3 723.3 77 722C102.7 720.7 128.3 717.3 154 718.3C179.7 719.3 205.3 724.7 231.2 732.7C257 740.7 283 751.3 308.8 763C334.7 774.7 360.3 787.3 386 794.5C411.7 801.7 437.3 803.3 463 793.3C488.7 783.3 514.3 761.7 527.2 750.8L540 740L540 961L527.2 961C514.3 961 488.7 961 463 961C437.3 961 411.7 961 386 961C360.3 961 334.7 961 308.8 961C283 961 257 961 231.2 961C205.3 961 179.7 961 154 961C128.3 961 102.7 961 77 961C51.3 961 25.7 961 12.8 961L0 961Z" fill="#e34c67"></path><path d="M0 836L12.8 832.5C25.7 829 51.3 822 77 816C102.7 810 128.3 805 154 804.7C179.7 804.3 205.3 808.7 231.2 816.7C257 824.7 283 836.3 308.8 829.3C334.7 822.3 360.3 796.7 386 790.5C411.7 784.3 437.3 797.7 463 807.3C488.7 817 514.3 823 527.2 826L540 829L540 961L527.2 961C514.3 961 488.7 961 463 961C437.3 961 411.7 961 386 961C360.3 961 334.7 961 308.8 961C283 961 257 961 231.2 961C205.3 961 179.7 961 154 961C128.3 961 102.7 961 77 961C51.3 961 25.7 961 12.8 961L0 961Z" fill="#d53867"></path><path d="M0 883L12.8 877.8C25.7 872.7 51.3 862.3 77 867C102.7 871.7 128.3 891.3 154 891C179.7 890.7 205.3 870.3 231.2 867C257 863.7 283 877.3 308.8 881.3C334.7 885.3 360.3 879.7 386 880.5C411.7 881.3 437.3 888.7 463 893.2C488.7 897.7 514.3 899.3 527.2 900.2L540 901L540 961L527.2 961C514.3 961 488.7 961 463 961C437.3 961 411.7 961 386 961C360.3 961 334.7 961 308.8 961C283 961 257 961 231.2 961C205.3 961 179.7 961 154 961C128.3 961 102.7 961 77 961C51.3 961 25.7 961 12.8 961L0 961Z" fill="#c62368"></path></svg>